<?xml version="1.0" encoding="utf-8"?>
<!-- Generator: Adobe Illustrator 25.2.1, SVG Export Plug-In . SVG Version: 6.00 Build 0)  -->
<svg version="1.1" id="Layer_2" xmlns="http://www.w3.org/2000/svg" xmlns:xlink="http://www.w3.org/1999/xlink" x="0px" y="0px"
	 viewBox="0 0 221.3 99" style="enable-background:new 0 0 221.3 99;" xml:space="preserve">
<style type="text/css">
	.st0{opacity:0.8;}
	.st1{fill:#333333;}
	.st2{opacity:0.8;fill:none;stroke:#333333;stroke-width:0.8;stroke-miterlimit:10;}
	.st3{fill:none;stroke:#333333;stroke-width:0.8;stroke-miterlimit:10;}
</style>
<g class="st0">
	<path class="st1" d="M92.4,18.4c-0.5-0.5-0.7-1.1-0.7-1.8v-5.7c0-0.8,0.2-1.4,0.7-1.8s1.1-0.7,1.8-0.7s1.4,0.2,1.9,0.7
		s0.7,1.1,0.7,1.8v0.6c0,0.1,0,0.2-0.1,0.2h-0.8c-0.1,0-0.1,0-0.1-0.2v-0.7c0-0.5-0.1-0.8-0.4-1.1s-0.6-0.4-1.1-0.4
		c-0.4,0-0.8,0.1-1.1,0.4c-0.3,0.3-0.4,0.7-0.4,1.1v5.8c0,0.5,0.1,0.8,0.4,1.1c0.3,0.3,0.6,0.4,1.1,0.4c0.5,0,0.8-0.1,1.1-0.4
		s0.4-0.7,0.4-1.1v-1.9c0,0,0-0.1-0.1-0.1h-1.3c-0.1,0-0.1-0.1-0.1-0.2v-0.6c0-0.1,0.1-0.2,0.1-0.2h2.3c0.1,0,0.1,0.1,0.1,0.2v2.7
		c0,0.8-0.2,1.4-0.7,1.8S95,19,94.2,19S92.8,18.8,92.4,18.4z"/>
	<path class="st1" d="M102.7,18.8l-1.5-4.6c0,0,0,0-0.1,0h-1.3c0,0-0.1,0-0.1,0.1v4.6c0,0.1,0,0.2-0.1,0.2h-0.8
		c-0.1,0-0.1,0-0.1-0.2V8.6c0-0.1,0-0.2,0.1-0.2h2.5c0.7,0,1.3,0.3,1.8,0.8s0.7,1.2,0.7,2.1c0,0.7-0.1,1.2-0.4,1.7s-0.7,0.8-1.1,1
		c0,0-0.1,0,0,0.1l1.6,4.7l0,0.1c0,0.1,0,0.1-0.1,0.1h-0.8C102.8,18.9,102.8,18.9,102.7,18.8z M99.8,9.4v3.8c0,0,0,0.1,0.1,0.1h1.3
		c0.5,0,0.8-0.2,1.1-0.5c0.3-0.4,0.4-0.8,0.4-1.4c0-0.6-0.1-1.1-0.4-1.4c-0.3-0.4-0.7-0.5-1.1-0.5L99.8,9.4
		C99.8,9.4,99.8,9.4,99.8,9.4z"/>
	<path class="st1" d="M110,9.4h-3.5c0,0-0.1,0-0.1,0.1v3.7c0,0,0,0.1,0.1,0.1h2.2c0.1,0,0.1,0.1,0.1,0.2V14c0,0.1,0,0.1-0.1,0.1
		h-2.2c0,0-0.1,0-0.1,0.1v3.7c0,0,0,0.1,0.1,0.1h3.5c0.1,0,0.1,0,0.1,0.1v0.6c0,0.1,0,0.2-0.1,0.2h-4.5c-0.1,0-0.2,0-0.2-0.2V8.6
		c0-0.1,0-0.2,0.2-0.2h4.5c0.1,0,0.1,0,0.1,0.2v0.6C110.1,9.3,110.1,9.4,110,9.4z"/>
	<path class="st1" d="M116.4,9.4h-3.5c0,0-0.1,0-0.1,0.1v3.7c0,0,0,0.1,0.1,0.1h2.2c0.1,0,0.2,0.1,0.2,0.2V14c0,0.1-0.1,0.1-0.2,0.1
		h-2.2c0,0-0.1,0-0.1,0.1v3.7c0,0,0,0.1,0.1,0.1h3.5c0.1,0,0.2,0,0.2,0.1v0.6c0,0.1-0.1,0.2-0.2,0.2h-4.5c-0.1,0-0.1,0-0.1-0.2V8.6
		c0-0.1,0-0.2,0.1-0.2h4.5c0.1,0,0.2,0,0.2,0.2v0.6C116.5,9.3,116.5,9.4,116.4,9.4z"/>
	<path class="st1" d="M122.6,8.4h0.8c0.1,0,0.2,0,0.2,0.2v10.2c0,0.1-0.1,0.2-0.2,0.2h-0.9c-0.1,0-0.1,0-0.2-0.1l-2.9-7.8
		c0,0,0,0,0,0c0,0,0,0,0,0.1l0,7.7c0,0.1,0,0.2-0.1,0.2h-0.8c-0.1,0-0.1,0-0.1-0.2V8.6c0-0.1,0-0.2,0.1-0.2h0.9c0.1,0,0.1,0,0.2,0.1
		l2.9,7.8c0,0,0,0,0,0c0,0,0,0,0-0.1V8.6C122.4,8.5,122.5,8.4,122.6,8.4z"/>
	<path class="st1" d="M96.7,26.4h0.8c0.1,0,0.1,0,0.1,0.2v10.2c0,0.1-0.1,0.2-0.1,0.2h-0.8c-0.1,0-0.1,0-0.1-0.2v-8c0,0,0,0,0,0
		c0,0,0,0-0.1,0L94.9,32c0,0.1-0.1,0.1-0.1,0.1c-0.1,0-0.1,0-0.2-0.1L93,28.7c0,0,0,0-0.1,0c0,0,0,0,0,0v8c0,0.1-0.1,0.2-0.2,0.2
		h-0.8c-0.1,0-0.2,0-0.2-0.2V26.6c0-0.1,0.1-0.2,0.2-0.2h0.8c0.1,0,0.1,0,0.2,0.1l1.7,3.5c0,0,0,0,0,0s0,0,0,0l1.7-3.5
		C96.5,26.5,96.6,26.4,96.7,26.4z"/>
	<path class="st1" d="M104.4,27.4h-3.5c0,0-0.1,0-0.1,0.1v3.7c0,0,0,0.1,0.1,0.1h2.2c0.1,0,0.1,0.1,0.1,0.2V32c0,0.1,0,0.1-0.1,0.1
		h-2.2c0,0-0.1,0-0.1,0.1v3.7c0,0,0,0.1,0.1,0.1h3.5c0.1,0,0.1,0,0.1,0.1v0.6c0,0.1,0,0.2-0.1,0.2h-4.5c-0.1,0-0.2,0-0.2-0.2V26.6
		c0-0.1,0-0.2,0.2-0.2h4.5c0.1,0,0.1,0,0.1,0.2v0.6C104.5,27.3,104.5,27.4,104.4,27.4z"/>
	<path class="st1" d="M110.5,26.4h0.8c0.1,0,0.1,0,0.1,0.2v10.2c0,0.1,0,0.2-0.1,0.2h-0.9c-0.1,0-0.1,0-0.2-0.1l-2.9-7.8
		c0,0,0,0,0,0c0,0,0,0,0,0.1l0,7.7c0,0.1-0.1,0.2-0.2,0.2h-0.8c-0.1,0-0.2,0-0.2-0.2V26.6c0-0.1,0-0.2,0.2-0.2h0.9
		c0.1,0,0.1,0,0.2,0.1l2.9,7.8c0,0,0,0,0,0c0,0,0,0,0-0.1v-7.7C110.4,26.5,110.4,26.4,110.5,26.4z"/>
	<path class="st1" d="M118.3,26.6v0.6c0,0.1-0.1,0.1-0.2,0.1h-2c0,0-0.1,0-0.1,0.1v9.4c0,0.1,0,0.2-0.1,0.2h-0.8
		c-0.1,0-0.1,0-0.1-0.2v-9.4c0,0,0-0.1-0.1-0.1h-1.9c-0.1,0-0.2,0-0.2-0.1v-0.6c0-0.1,0-0.2,0.2-0.2h5
		C118.3,26.4,118.3,26.5,118.3,26.6z"/>
	<path class="st1" d="M119.9,36.8V26.6c0-0.1,0-0.2,0.2-0.2h0.8c0.1,0,0.2,0,0.2,0.2v10.2c0,0.1-0.1,0.2-0.2,0.2h-0.8
		C120,36.9,119.9,36.9,119.9,36.8z"/>
	<path class="st1" d="M123.6,36.3c-0.5-0.5-0.7-1.1-0.7-1.9v-5.5c0-0.8,0.2-1.4,0.7-1.9c0.5-0.5,1.1-0.7,1.9-0.7
		c0.8,0,1.4,0.2,1.9,0.7c0.5,0.5,0.7,1.1,0.7,1.9v5.5c0,0.8-0.2,1.4-0.7,1.9c-0.5,0.5-1.1,0.7-1.9,0.7
		C124.7,37,124.1,36.8,123.6,36.3z M126.6,35.7c0.3-0.3,0.4-0.7,0.4-1.2v-5.6c0-0.5-0.1-0.9-0.4-1.2s-0.7-0.5-1.1-0.5
		c-0.5,0-0.8,0.2-1.1,0.5c-0.3,0.3-0.4,0.7-0.4,1.2v5.6c0,0.5,0.1,0.9,0.4,1.2c0.3,0.3,0.6,0.5,1.1,0.5
		C125.9,36.1,126.3,36,126.6,35.7z"/>
	<path class="st1" d="M134.3,26.4h0.8c0.1,0,0.1,0,0.1,0.2v10.2c0,0.1,0,0.2-0.1,0.2h-0.9c-0.1,0-0.1,0-0.2-0.1l-2.9-7.8
		c0,0,0,0,0,0c0,0,0,0,0,0.1l0,7.7c0,0.1-0.1,0.2-0.2,0.2h-0.8c-0.1,0-0.2,0-0.2-0.2V26.6c0-0.1,0-0.2,0.2-0.2h0.9
		c0.1,0,0.1,0,0.2,0.1l2.9,7.8c0,0,0,0,0,0c0,0,0,0,0-0.1v-7.7C134.2,26.5,134.2,26.4,134.3,26.4z"/>
	<path class="st1" d="M137.6,36.3c-0.5-0.5-0.7-1.1-0.7-1.9V34c0-0.1,0-0.2,0.1-0.2h0.7c0.1,0,0.2,0.1,0.2,0.2v0.3
		c0,0.5,0.1,1,0.4,1.3c0.3,0.3,0.6,0.5,1.1,0.5c0.4,0,0.8-0.2,1-0.5c0.3-0.3,0.4-0.7,0.4-1.2c0-0.3-0.1-0.6-0.2-0.9
		c-0.1-0.2-0.3-0.5-0.5-0.6c-0.2-0.2-0.6-0.5-1.1-0.8c-0.5-0.4-0.9-0.7-1.2-1c-0.3-0.3-0.5-0.6-0.7-1c-0.2-0.4-0.3-0.8-0.3-1.3
		c0-0.8,0.2-1.4,0.7-1.9s1-0.7,1.8-0.7c0.8,0,1.4,0.2,1.8,0.7c0.5,0.5,0.7,1.2,0.7,2v0.4c0,0.1,0,0.2-0.2,0.2H141
		c-0.1,0-0.1,0-0.1-0.2V29c0-0.5-0.1-1-0.4-1.3c-0.3-0.3-0.6-0.5-1.1-0.5c-0.4,0-0.7,0.1-1,0.4s-0.4,0.7-0.4,1.2
		c0,0.3,0.1,0.6,0.2,0.8c0.1,0.2,0.3,0.5,0.5,0.7c0.2,0.2,0.6,0.5,1,0.8c0.6,0.4,1,0.8,1.3,1.1c0.3,0.3,0.5,0.6,0.7,0.9
		s0.2,0.7,0.2,1.2c0,0.8-0.2,1.5-0.7,2c-0.5,0.5-1.1,0.7-1.8,0.7C138.7,37,138.1,36.8,137.6,36.3z"/>
</g>
<g class="st0">
	<path class="st1" d="M170.9,12.5c-0.3-0.2-0.6-0.4-0.8-0.8c-0.2-0.3-0.3-0.7-0.3-1.1s0.1-0.7,0.3-1.1c0.2-0.3,0.4-0.6,0.8-0.8
		c0.3-0.2,0.7-0.3,1.1-0.3c0.4,0,0.7,0.1,1,0.3c0.3,0.2,0.6,0.4,0.8,0.8c0.2,0.3,0.3,0.7,0.3,1.1s-0.1,0.7-0.3,1.1
		c-0.2,0.3-0.4,0.6-0.8,0.8c-0.3,0.2-0.7,0.3-1,0.3C171.6,12.8,171.2,12.7,170.9,12.5z M173,11.7c0.3-0.3,0.4-0.6,0.4-1.1
		c0-0.4-0.1-0.8-0.4-1.1c-0.3-0.3-0.6-0.4-1-0.4c-0.4,0-0.7,0.1-1,0.4s-0.4,0.6-0.4,1.1s0.1,0.8,0.4,1.1c0.3,0.3,0.6,0.4,1,0.4
		C172.4,12.2,172.7,12,173,11.7z M171.5,19.1c0,0,0-0.1,0-0.1L177,8.8c0-0.1,0.1-0.1,0.2-0.1h0.5c0.1,0,0.1,0,0.1,0.1
		c0,0,0,0.1,0,0.1l-5.5,10.2c0,0.1-0.1,0.1-0.2,0.1h-0.5C171.5,19.2,171.5,19.1,171.5,19.1z M176.3,19c-0.3-0.2-0.6-0.4-0.8-0.8
		c-0.2-0.3-0.3-0.7-0.3-1.1c0-0.4,0.1-0.7,0.3-1.1c0.2-0.3,0.4-0.6,0.8-0.8c0.3-0.2,0.7-0.3,1.1-0.3s0.7,0.1,1,0.3
		c0.3,0.2,0.6,0.4,0.8,0.8c0.2,0.3,0.3,0.7,0.3,1.1c0,0.4-0.1,0.8-0.3,1.1c-0.2,0.3-0.4,0.6-0.8,0.8c-0.3,0.2-0.7,0.3-1,0.3
		S176.6,19.2,176.3,19z M178.4,18.2c0.3-0.3,0.4-0.7,0.4-1.1c0-0.4-0.1-0.8-0.4-1c-0.3-0.3-0.6-0.4-1-0.4c-0.4,0-0.7,0.1-1,0.4
		c-0.3,0.3-0.4,0.6-0.4,1c0,0.4,0.1,0.8,0.4,1.1c0.3,0.3,0.6,0.4,1,0.4C177.7,18.7,178.1,18.5,178.4,18.2z"/>
	<path class="st1" d="M185,18.6c-0.5-0.5-0.7-1.1-0.7-1.9v-5.5c0-0.8,0.2-1.4,0.7-1.9c0.5-0.5,1.1-0.7,1.9-0.7
		c0.8,0,1.4,0.2,1.9,0.7c0.5,0.5,0.7,1.1,0.7,1.9v5.5c0,0.8-0.2,1.4-0.7,1.9c-0.5,0.5-1.1,0.7-1.9,0.7C186.1,19.3,185.5,19,185,18.6
		z M188,17.9c0.3-0.3,0.4-0.7,0.4-1.2v-5.6c0-0.5-0.1-0.9-0.4-1.2s-0.7-0.5-1.1-0.5c-0.5,0-0.8,0.2-1.1,0.5
		c-0.3,0.3-0.4,0.7-0.4,1.2v5.6c0,0.5,0.1,0.9,0.4,1.2c0.3,0.3,0.6,0.5,1.1,0.5C187.4,18.4,187.7,18.2,188,17.9z"/>
	<path class="st1" d="M196,9.6h-3.5c0,0-0.1,0-0.1,0.1v3.7c0,0,0,0.1,0.1,0.1h2.2c0.1,0,0.2,0.1,0.2,0.2v0.6c0,0.1,0,0.1-0.2,0.1
		h-2.2c0,0-0.1,0-0.1,0.1V19c0,0.1-0.1,0.2-0.2,0.2h-0.8c-0.1,0-0.2,0-0.2-0.2V8.8c0-0.1,0-0.2,0.2-0.2h4.4c0.1,0,0.2,0,0.2,0.2v0.6
		C196.1,9.5,196.1,9.6,196,9.6z"/>
	<path class="st1" d="M171.5,37l-2.2-10.2v0c0-0.1,0-0.1,0.1-0.1h0.8c0.1,0,0.2,0,0.2,0.1l1.6,8.4c0,0,0,0,0,0c0,0,0,0,0,0l1.6-8.4
		c0-0.1,0.1-0.1,0.2-0.1h0.8c0.1,0,0.2,0.1,0.1,0.2L172.7,37c0,0.1-0.1,0.1-0.2,0.1h-0.9C171.5,37.2,171.5,37.1,171.5,37z"/>
	<path class="st1" d="M176.8,36.6c-0.5-0.5-0.7-1.1-0.7-1.9v-5.5c0-0.8,0.2-1.4,0.7-1.9c0.5-0.5,1.1-0.7,1.9-0.7
		c0.8,0,1.4,0.2,1.9,0.7c0.5,0.5,0.7,1.1,0.7,1.9v5.5c0,0.8-0.2,1.4-0.7,1.9c-0.5,0.5-1.1,0.7-1.9,0.7
		C177.9,37.3,177.2,37,176.8,36.6z M179.7,35.9c0.3-0.3,0.4-0.7,0.4-1.2v-5.6c0-0.5-0.1-0.9-0.4-1.2s-0.7-0.5-1.1-0.5
		c-0.5,0-0.8,0.2-1.1,0.5c-0.3,0.3-0.4,0.7-0.4,1.2v5.6c0,0.5,0.1,0.9,0.4,1.2c0.3,0.3,0.6,0.5,1.1,0.5
		C179.1,36.4,179.5,36.2,179.7,35.9z"/>
	<path class="st1" d="M187.9,26.8v0.6c0,0.1,0,0.1-0.1,0.1h-2c0,0-0.1,0-0.1,0.1V37c0,0.1-0.1,0.2-0.2,0.2h-0.8
		c-0.1,0-0.2,0-0.2-0.2v-9.4c0,0,0-0.1-0.1-0.1h-1.9c-0.1,0-0.2,0-0.2-0.1v-0.6c0-0.1,0.1-0.2,0.2-0.2h5
		C187.8,26.7,187.9,26.7,187.9,26.8z"/>
	<path class="st1" d="M194.1,27.6h-3.5c0,0-0.1,0-0.1,0.1v3.7c0,0,0,0.1,0.1,0.1h2.2c0.1,0,0.1,0.1,0.1,0.2v0.6c0,0.1,0,0.1-0.1,0.1
		h-2.2c0,0-0.1,0-0.1,0.1v3.7c0,0,0,0.1,0.1,0.1h3.5c0.1,0,0.1,0,0.1,0.1V37c0,0.1,0,0.2-0.1,0.2h-4.5c-0.1,0-0.2,0-0.2-0.2V26.8
		c0-0.1,0-0.2,0.2-0.2h4.5c0.1,0,0.1,0,0.1,0.2v0.6C194.2,27.5,194.2,27.6,194.1,27.6z"/>
	<path class="st1" d="M196.2,36.5c-0.5-0.5-0.7-1.1-0.7-1.9v-0.3c0-0.1,0-0.2,0.1-0.2h0.7c0.1,0,0.2,0.1,0.2,0.2v0.3
		c0,0.5,0.1,1,0.4,1.3c0.3,0.3,0.6,0.5,1.1,0.5c0.4,0,0.8-0.2,1-0.5c0.3-0.3,0.4-0.7,0.4-1.2c0-0.3-0.1-0.6-0.2-0.9
		c-0.1-0.2-0.3-0.5-0.5-0.6c-0.2-0.2-0.6-0.5-1.1-0.8c-0.5-0.4-0.9-0.7-1.2-1c-0.3-0.3-0.5-0.6-0.7-1c-0.2-0.4-0.3-0.8-0.3-1.3
		c0-0.8,0.2-1.4,0.7-1.9s1-0.7,1.8-0.7c0.8,0,1.4,0.2,1.8,0.7c0.5,0.5,0.7,1.2,0.7,2v0.4c0,0.1,0,0.2-0.2,0.2h-0.8
		c-0.1,0-0.1,0-0.1-0.2v-0.4c0-0.5-0.1-1-0.4-1.3c-0.3-0.3-0.6-0.5-1.1-0.5c-0.4,0-0.7,0.1-1,0.4s-0.4,0.7-0.4,1.2
		c0,0.3,0.1,0.6,0.2,0.8c0.1,0.2,0.3,0.5,0.5,0.7c0.2,0.2,0.6,0.5,1,0.8c0.6,0.4,1,0.8,1.3,1.1c0.3,0.3,0.5,0.6,0.7,0.9
		s0.2,0.7,0.2,1.2c0,0.8-0.2,1.5-0.7,2c-0.5,0.5-1.1,0.7-1.8,0.7C197.2,37.3,196.6,37,196.2,36.5z"/>
</g>
<g class="st0">
	<path class="st1" d="M15,9.2c0.5,0.5,0.7,1.2,0.7,2.1c0,0.9-0.2,1.6-0.7,2.1c-0.4,0.5-1,0.8-1.7,0.8h-1.5c0,0-0.1,0-0.1,0.1v4.5
		c0,0.1,0,0.2-0.1,0.2h-0.8c-0.1,0-0.1,0-0.1-0.2V8.6c0-0.1,0-0.1,0.1-0.1h2.5C14,8.4,14.5,8.7,15,9.2z M14.2,12.8
		c0.3-0.4,0.4-0.8,0.4-1.4c0-0.6-0.1-1.1-0.4-1.4s-0.6-0.5-1.1-0.5h-1.4c0,0-0.1,0-0.1,0.1v3.9c0,0,0,0.1,0.1,0.1h1.4
		C13.5,13.3,13.9,13.1,14.2,12.8z"/>
	<path class="st1" d="M17.7,18.3c-0.5-0.5-0.7-1.1-0.7-1.9v-5.5c0-0.8,0.2-1.4,0.7-1.9c0.5-0.5,1.1-0.7,1.9-0.7
		c0.8,0,1.4,0.2,1.9,0.7c0.5,0.5,0.7,1.1,0.7,1.9v5.5c0,0.8-0.2,1.4-0.7,1.9S20.4,19,19.6,19C18.8,19,18.2,18.8,17.7,18.3z
		 M20.7,17.7c0.3-0.3,0.4-0.7,0.4-1.2v-5.6c0-0.5-0.1-0.9-0.4-1.2S20,9.2,19.6,9.2c-0.4,0-0.8,0.2-1.1,0.5c-0.3,0.3-0.4,0.7-0.4,1.2
		v5.6c0,0.5,0.1,0.9,0.4,1.2c0.3,0.3,0.6,0.5,1.1,0.5C20,18.1,20.4,18,20.7,17.7z"/>
	<path class="st1" d="M24.1,18.8V8.6c0-0.1,0-0.2,0.1-0.2H25c0.1,0,0.1,0,0.1,0.2v9.4c0,0,0,0.1,0.1,0.1h3.4c0.1,0,0.1,0,0.1,0.1
		v0.6c0,0.1-0.1,0.2-0.1,0.2h-4.4C24.1,18.9,24.1,18.9,24.1,18.8z"/>
	<path class="st1" d="M30,18.8V8.6c0-0.1,0-0.2,0.1-0.2h0.8c0.1,0,0.1,0,0.1,0.2v10.2c0,0.1-0.1,0.2-0.1,0.2h-0.8
		C30.1,18.9,30,18.9,30,18.8z"/>
	<path class="st1" d="M38,8.6v0.6c0,0.1-0.1,0.1-0.1,0.1h-2c0,0-0.1,0-0.1,0.1v9.4c0,0.1-0.1,0.2-0.1,0.2h-0.8c-0.1,0-0.1,0-0.1-0.2
		V9.4c0,0,0-0.1-0.1-0.1h-1.9c-0.1,0-0.2,0-0.2-0.1V8.6c0-0.1,0.1-0.2,0.2-0.2h5C38,8.4,38,8.5,38,8.6z"/>
	<path class="st1" d="M39.6,18.8V8.6c0-0.1,0-0.2,0.1-0.2h0.8c0.1,0,0.1,0,0.1,0.2v10.2c0,0.1-0.1,0.2-0.1,0.2h-0.8
		C39.6,18.9,39.6,18.9,39.6,18.8z"/>
	<path class="st1" d="M43.3,18.3c-0.5-0.5-0.7-1.1-0.7-1.9v-5.6c0-0.8,0.2-1.4,0.7-1.9s1.1-0.7,1.9-0.7c0.8,0,1.4,0.2,1.9,0.7
		c0.5,0.5,0.7,1.1,0.7,1.9v0.3c0,0.1-0.1,0.2-0.1,0.2l-0.8,0c-0.1,0-0.1,0-0.1-0.2v-0.4c0-0.5-0.1-0.8-0.4-1.1s-0.6-0.4-1.1-0.4
		c-0.4,0-0.8,0.1-1.1,0.4c-0.3,0.3-0.4,0.7-0.4,1.1v5.7c0,0.5,0.1,0.8,0.4,1.1c0.3,0.3,0.6,0.4,1.1,0.4c0.5,0,0.8-0.1,1.1-0.4
		s0.4-0.7,0.4-1.1v-0.4c0-0.1,0.1-0.2,0.1-0.2l0.8,0c0.1,0,0.1,0.1,0.1,0.2v0.2c0,0.8-0.2,1.4-0.7,1.9S45.9,19,45.1,19
		S43.7,18.8,43.3,18.3z"/>
	<path class="st1" d="M53.2,18.8l-0.4-1.9c0,0,0,0,0,0s0,0-0.1,0h-2.7c0,0,0,0-0.1,0c0,0,0,0,0,0l-0.4,1.9c0,0.1-0.1,0.1-0.2,0.1
		h-0.8c-0.1,0-0.1,0-0.1,0s0-0.1,0-0.1l2.2-10.2c0-0.1,0.1-0.1,0.2-0.1h0.9c0.1,0,0.2,0,0.2,0.1l2.3,10.2v0c0,0.1,0,0.1-0.1,0.1
		h-0.8C53.3,18.9,53.3,18.9,53.2,18.8z M50.2,16h2.4c0,0,0,0,0-0.1L51.5,10c0,0,0,0,0,0c0,0,0,0,0,0L50.2,16
		C50.2,16,50.2,16,50.2,16z"/>
	<path class="st1" d="M55.6,18.8V8.6c0-0.1,0-0.2,0.1-0.2h0.8c0.1,0,0.1,0,0.1,0.2v9.4c0,0,0,0.1,0.1,0.1h3.4c0.1,0,0.1,0,0.1,0.1
		v0.6c0,0.1-0.1,0.2-0.1,0.2h-4.4C55.7,18.9,55.6,18.9,55.6,18.8z"/>
	<path class="st1" d="M10.6,36.8V26.6c0-0.1,0-0.2,0.1-0.2h0.8c0.1,0,0.1,0,0.1,0.2v10.2c0,0.1-0.1,0.2-0.1,0.2h-0.8
		C10.7,36.9,10.6,36.9,10.6,36.8z"/>
	<path class="st1" d="M13.8,36.8V26.6c0-0.1,0-0.2,0.1-0.2h2.3c0.8,0,1.4,0.3,1.8,0.8s0.7,1.2,0.7,2v4.9c0,0.9-0.2,1.5-0.7,2
		c-0.5,0.5-1.1,0.8-1.8,0.8H14C13.9,36.9,13.8,36.9,13.8,36.8z M15,36l1.3,0c0.4,0,0.8-0.2,1.1-0.5c0.3-0.3,0.4-0.8,0.4-1.4v-4.8
		c0-0.6-0.1-1.1-0.4-1.4c-0.3-0.3-0.6-0.5-1.1-0.5H15c0,0-0.1,0-0.1,0.1L15,36C14.9,36,14.9,36,15,36z"/>
	<path class="st1" d="M25.3,27.4h-3.5c0,0-0.1,0-0.1,0.1v3.7c0,0,0,0.1,0.1,0.1H24c0.1,0,0.1,0.1,0.1,0.2V32c0,0.1-0.1,0.1-0.1,0.1
		h-2.2c0,0-0.1,0-0.1,0.1v3.7c0,0,0,0.1,0.1,0.1h3.5c0.1,0,0.1,0,0.1,0.1v0.6c0,0.1-0.1,0.2-0.1,0.2h-4.5c-0.1,0-0.1,0-0.1-0.2V26.6
		c0-0.1,0-0.2,0.1-0.2h4.5c0.1,0,0.1,0,0.1,0.2v0.6C25.5,27.3,25.4,27.4,25.3,27.4z"/>
	<path class="st1" d="M27.6,36.3c-0.5-0.5-0.7-1.1-0.7-1.9v-5.5c0-0.8,0.2-1.4,0.7-1.9c0.5-0.5,1.1-0.7,1.9-0.7
		c0.8,0,1.4,0.2,1.9,0.7c0.5,0.5,0.7,1.1,0.7,1.9v5.5c0,0.8-0.2,1.4-0.7,1.9S30.3,37,29.5,37C28.7,37,28.1,36.8,27.6,36.3z
		 M30.6,35.7c0.3-0.3,0.4-0.7,0.4-1.2v-5.6c0-0.5-0.1-0.9-0.4-1.2s-0.7-0.5-1.1-0.5c-0.4,0-0.8,0.2-1.1,0.5C28.1,28,28,28.4,28,28.9
		v5.6c0,0.5,0.1,0.9,0.4,1.2c0.3,0.3,0.6,0.5,1.1,0.5C29.9,36.1,30.3,36,30.6,35.7z"/>
	<path class="st1" d="M34,36.8V26.6c0-0.1,0-0.2,0.1-0.2h0.8c0.1,0,0.1,0,0.1,0.2v9.4c0,0,0,0.1,0.1,0.1h3.4c0.1,0,0.1,0,0.1,0.1
		v0.6c0,0.1-0.1,0.2-0.1,0.2h-4.4C34,36.9,34,36.9,34,36.8z"/>
	<path class="st1" d="M40.4,36.3c-0.5-0.5-0.7-1.1-0.7-1.9v-5.5c0-0.8,0.2-1.4,0.7-1.9c0.5-0.5,1.1-0.7,1.9-0.7
		c0.8,0,1.4,0.2,1.9,0.7c0.5,0.5,0.7,1.1,0.7,1.9v5.5c0,0.8-0.2,1.4-0.7,1.9S43,37,42.2,37C41.5,37,40.8,36.8,40.4,36.3z M43.4,35.7
		c0.3-0.3,0.4-0.7,0.4-1.2v-5.6c0-0.5-0.1-0.9-0.4-1.2s-0.7-0.5-1.1-0.5c-0.4,0-0.8,0.2-1.1,0.5c-0.3,0.3-0.4,0.7-0.4,1.2v5.6
		c0,0.5,0.1,0.9,0.4,1.2c0.3,0.3,0.6,0.5,1.1,0.5C42.7,36.1,43.1,36,43.4,35.7z"/>
	<path class="st1" d="M47.2,36.4c-0.5-0.5-0.7-1.1-0.7-1.8v-5.7c0-0.8,0.2-1.4,0.7-1.8s1.1-0.7,1.8-0.7s1.4,0.2,1.9,0.7
		s0.7,1.1,0.7,1.8v0.6c0,0.1,0,0.2-0.1,0.2h-0.8c-0.1,0-0.1,0-0.1-0.2v-0.7c0-0.5-0.1-0.8-0.4-1.1s-0.6-0.4-1.1-0.4
		c-0.4,0-0.8,0.1-1.1,0.4c-0.3,0.3-0.4,0.7-0.4,1.1v5.8c0,0.5,0.1,0.8,0.4,1.1c0.3,0.3,0.6,0.4,1.1,0.4c0.5,0,0.8-0.1,1.1-0.4
		s0.4-0.7,0.4-1.1v-1.9c0,0,0-0.1-0.1-0.1h-1.3c-0.1,0-0.1-0.1-0.1-0.2v-0.6c0-0.1,0.1-0.2,0.1-0.2h2.3c0.1,0,0.1,0.1,0.1,0.2v2.7
		c0,0.8-0.2,1.4-0.7,1.8S49.8,37,49,37S47.7,36.8,47.2,36.4z"/>
	<path class="st1" d="M55,36.8v-4.5c0,0,0-0.1,0-0.1l-2.1-5.6l0-0.1c0-0.1,0-0.1,0.1-0.1h0.8c0.1,0,0.1,0,0.2,0.1l1.5,4.4
		c0,0,0,0,0,0c0,0,0,0,0,0l1.5-4.4c0-0.1,0.1-0.1,0.2-0.1H58c0,0,0.1,0,0.1,0.1s0,0.1,0,0.1l-2.1,5.6c0,0,0,0,0,0.1v4.5
		c0,0.1-0.1,0.2-0.2,0.2h-0.8C55.1,36.9,55,36.9,55,36.8z"/>
</g>
<circle class="st2" cx="169.9" cy="71.6" r="7.1"/>
<circle class="st2" cx="196.3" cy="70" r="15.5"/>
<g class="st0">
	<g>
		<line class="st3" x1="98.3" y1="50.1" x2="98.3" y2="83.5"/>
		<g>
			<polygon class="st1" points="95,52.8 95.6,53.3 98.3,50.4 100.9,53.3 101.5,52.8 98.3,49.3 			"/>
		</g>
		<g>
			<polygon class="st1" points="95,80.8 95.6,80.3 98.3,83.2 100.9,80.3 101.5,80.8 98.3,84.3 			"/>
		</g>
	</g>
</g>
<g class="st0">
	<path class="st1" d="M110.9,50.4h0.4c0.1,0,0.1,0,0.1,0.1v8.2c0,0.1,0,0.1-0.1,0.1h-0.4c-0.1,0-0.1,0-0.1-0.1v-6.8c0,0,0,0,0,0
		c0,0,0,0,0,0l-1.3,2.9c0,0.1-0.1,0.1-0.1,0.1c-0.1,0-0.1,0-0.1-0.1l-1.3-2.9c0,0,0,0,0,0s0,0,0,0v6.8c0,0.1,0,0.1-0.1,0.1h-0.4
		c-0.1,0-0.1,0-0.1-0.1v-8.2c0-0.1,0-0.1,0.1-0.1h0.4c0.1,0,0.1,0,0.1,0.1l1.5,3.1c0,0,0,0,0,0s0,0,0,0l1.4-3.1
		C110.8,50.4,110.9,50.4,110.9,50.4z"/>
	<path class="st1" d="M113.5,58.4c-0.3-0.3-0.5-0.8-0.5-1.3v-2.6c0-0.5,0.2-1,0.5-1.3s0.8-0.5,1.3-0.5c0.5,0,1,0.2,1.3,0.5
		c0.3,0.3,0.5,0.8,0.5,1.3v2.6c0,0.5-0.2,1-0.5,1.3c-0.3,0.3-0.8,0.5-1.3,0.5C114.3,58.9,113.9,58.7,113.5,58.4z M115.7,58
		c0.2-0.2,0.3-0.5,0.3-0.9v-2.6c0-0.4-0.1-0.7-0.3-0.9c-0.2-0.2-0.5-0.4-0.8-0.4c-0.3,0-0.6,0.1-0.8,0.4c-0.2,0.2-0.3,0.5-0.3,0.9
		v2.6c0,0.4,0.1,0.7,0.3,0.9c0.2,0.2,0.5,0.4,0.8,0.4C115.2,58.3,115.5,58.2,115.7,58z"/>
	<path class="st1" d="M120.5,52.8c0.1,0,0.1,0.1,0.1,0.2l-0.1,0.4c0,0.1-0.1,0.1-0.2,0.1c-0.1,0-0.3-0.1-0.5-0.1
		c-0.3,0-0.6,0.2-0.8,0.5c-0.2,0.3-0.3,0.7-0.3,1.2v3.7c0,0.1,0,0.1-0.1,0.1h-0.4c-0.1,0-0.1,0-0.1-0.1v-5.8c0-0.1,0-0.1,0.1-0.1
		h0.4c0.1,0,0.1,0,0.1,0.1v0.7c0,0,0,0,0,0c0,0,0,0,0,0c0.1-0.3,0.3-0.5,0.5-0.7c0.2-0.2,0.4-0.2,0.7-0.2
		C120.1,52.7,120.3,52.7,120.5,52.8z"/>
	<path class="st1" d="M124.8,56H122c0,0,0,0,0,0v1c0,0.4,0.1,0.7,0.3,0.9c0.2,0.2,0.5,0.4,0.8,0.4c0.3,0,0.5-0.1,0.7-0.3
		c0.2-0.2,0.3-0.4,0.4-0.7c0-0.1,0.1-0.1,0.1-0.1l0.4,0c0,0,0.1,0,0.1,0c0,0,0,0,0,0.1v0c-0.1,0.4-0.3,0.8-0.6,1s-0.7,0.4-1.2,0.4
		c-0.5,0-1-0.2-1.3-0.5c-0.3-0.3-0.5-0.8-0.5-1.3v-2.7c0-0.5,0.2-1,0.5-1.3s0.8-0.5,1.3-0.5c0.5,0,1,0.2,1.3,0.5s0.5,0.8,0.5,1.3
		v1.4C124.9,56,124.8,56,124.8,56z M122.3,53.6c-0.2,0.2-0.3,0.5-0.3,0.9v0.9c0,0,0,0,0,0h2.2c0,0,0,0,0,0v-0.9
		c0-0.4-0.1-0.7-0.3-0.9c-0.2-0.2-0.5-0.4-0.8-0.4C122.8,53.2,122.5,53.3,122.3,53.6z"/>
</g>
<g class="st0">
	<path class="st1" d="M108,85.5v-8.2c0-0.1,0-0.1,0.1-0.1h0.4c0.1,0,0.1,0,0.1,0.1V85c0,0,0,0,0,0h2.8c0.1,0,0.1,0,0.1,0.1v0.3
		c0,0.1,0,0.1-0.1,0.1h-3.4C108.1,85.6,108,85.6,108,85.5z"/>
	<path class="st1" d="M115.8,82.8h-2.8c0,0,0,0,0,0v1c0,0.4,0.1,0.7,0.3,0.9c0.2,0.2,0.5,0.4,0.8,0.4c0.3,0,0.5-0.1,0.7-0.3
		c0.2-0.2,0.3-0.4,0.4-0.7c0-0.1,0.1-0.1,0.1-0.1l0.4,0c0,0,0.1,0,0.1,0c0,0,0,0,0,0.1v0c-0.1,0.4-0.3,0.8-0.6,1s-0.7,0.4-1.2,0.4
		c-0.5,0-1-0.2-1.3-0.5c-0.3-0.3-0.5-0.8-0.5-1.3v-2.7c0-0.5,0.2-1,0.5-1.3s0.8-0.5,1.3-0.5c0.5,0,1,0.2,1.3,0.5s0.5,0.8,0.5,1.3
		v1.4C116,82.8,115.9,82.8,115.8,82.8z M113.4,80.4c-0.2,0.2-0.3,0.5-0.3,0.9v0.9c0,0,0,0,0,0h2.2c0,0,0,0,0,0v-0.9
		c0-0.4-0.1-0.7-0.3-0.9c-0.2-0.2-0.5-0.4-0.8-0.4C113.8,80.1,113.6,80.2,113.4,80.4z"/>
	<path class="st1" d="M117.5,85.3c-0.3-0.3-0.5-0.6-0.5-1.1v-0.1c0-0.1,0-0.1,0.1-0.1h0.4c0.1,0,0.1,0,0.1,0.1v0.1
		c0,0.3,0.1,0.5,0.3,0.7c0.2,0.2,0.5,0.3,0.8,0.3c0.3,0,0.6-0.1,0.8-0.3c0.2-0.2,0.3-0.5,0.3-0.8c0-0.2-0.1-0.4-0.2-0.6
		c-0.1-0.2-0.3-0.3-0.4-0.4c-0.2-0.1-0.4-0.2-0.7-0.3c-0.3-0.1-0.6-0.3-0.8-0.4c-0.2-0.1-0.4-0.3-0.5-0.5c-0.1-0.2-0.2-0.5-0.2-0.8
		c0-0.5,0.2-0.9,0.5-1.2c0.3-0.3,0.7-0.4,1.2-0.4c0.5,0,0.9,0.1,1.2,0.4c0.3,0.3,0.5,0.7,0.5,1.2v0c0,0.1,0,0.1-0.1,0.1H120
		c-0.1,0-0.1,0-0.1-0.1v-0.1c0-0.3-0.1-0.5-0.3-0.7c-0.2-0.2-0.5-0.3-0.8-0.3c-0.3,0-0.6,0.1-0.8,0.3c-0.2,0.2-0.3,0.5-0.3,0.8
		c0,0.2,0.1,0.4,0.2,0.5c0.1,0.1,0.2,0.3,0.4,0.3s0.4,0.2,0.7,0.3c0.3,0.1,0.6,0.3,0.8,0.4s0.4,0.3,0.5,0.5c0.2,0.2,0.2,0.5,0.2,0.9
		c0,0.5-0.2,0.9-0.5,1.2c-0.3,0.3-0.7,0.4-1.2,0.4C118.3,85.7,117.9,85.6,117.5,85.3z"/>
	<path class="st1" d="M121.6,85.3c-0.3-0.3-0.5-0.6-0.5-1.1v-0.1c0-0.1,0-0.1,0.1-0.1h0.4c0.1,0,0.1,0,0.1,0.1v0.1
		c0,0.3,0.1,0.5,0.3,0.7c0.2,0.2,0.5,0.3,0.8,0.3c0.3,0,0.6-0.1,0.8-0.3c0.2-0.2,0.3-0.5,0.3-0.8c0-0.2-0.1-0.4-0.2-0.6
		c-0.1-0.2-0.3-0.3-0.4-0.4c-0.2-0.1-0.4-0.2-0.7-0.3c-0.3-0.1-0.6-0.3-0.8-0.4c-0.2-0.1-0.4-0.3-0.5-0.5c-0.1-0.2-0.2-0.5-0.2-0.8
		c0-0.5,0.2-0.9,0.5-1.2c0.3-0.3,0.7-0.4,1.2-0.4c0.5,0,0.9,0.1,1.2,0.4c0.3,0.3,0.5,0.7,0.5,1.2v0c0,0.1,0,0.1-0.1,0.1H124
		c-0.1,0-0.1,0-0.1-0.1v-0.1c0-0.3-0.1-0.5-0.3-0.7c-0.2-0.2-0.5-0.3-0.8-0.3c-0.3,0-0.6,0.1-0.8,0.3c-0.2,0.2-0.3,0.5-0.3,0.8
		c0,0.2,0.1,0.4,0.2,0.5c0.1,0.1,0.2,0.3,0.4,0.3s0.4,0.2,0.7,0.3c0.3,0.1,0.6,0.3,0.8,0.4s0.4,0.3,0.5,0.5c0.2,0.2,0.2,0.5,0.2,0.9
		c0,0.5-0.2,0.9-0.5,1.2c-0.3,0.3-0.7,0.4-1.2,0.4C122.3,85.7,121.9,85.6,121.6,85.3z"/>
</g>
<g class="st0">
	<g>
		<line class="st3" x1="52.8" y1="62.3" x2="16.2" y2="62.3"/>
		<g>
			<polygon class="st1" points="50.2,59.1 49.6,59.6 52.5,62.3 49.6,65 50.2,65.6 53.7,62.3 			"/>
		</g>
		<g>
			<polygon class="st1" points="18.9,59.1 19.4,59.6 16.6,62.3 19.4,65 18.9,65.6 15.4,62.3 			"/>
		</g>
	</g>
</g>
<g class="st0">
	<path class="st1" d="M46.3,79.9L45,76.1c0,0,0,0,0,0h-1.2c0,0,0,0,0,0v3.8c0,0.1,0,0.1-0.1,0.1h-0.4c-0.1,0-0.1,0-0.1-0.1v-8.2
		c0-0.1,0-0.1,0.1-0.1h1.9c0.6,0,1,0.2,1.4,0.6c0.3,0.4,0.5,1,0.5,1.6c0,0.5-0.1,1-0.3,1.4c-0.2,0.4-0.5,0.6-0.9,0.8c0,0,0,0,0,0.1
		l1.4,3.8l0,0c0,0.1,0,0.1-0.1,0.1h-0.4C46.4,80,46.4,79.9,46.3,79.9z M43.7,72.2v3.3c0,0,0,0,0,0H45c0.4,0,0.7-0.2,0.9-0.5
		c0.2-0.3,0.4-0.7,0.4-1.2c0-0.5-0.1-0.9-0.4-1.2c-0.2-0.3-0.6-0.5-0.9-0.5L43.7,72.2C43.7,72.1,43.7,72.1,43.7,72.2z"/>
	<path class="st1" d="M48.2,72.5c-0.1-0.1-0.2-0.3-0.2-0.4c0-0.2,0.1-0.3,0.2-0.4c0.1-0.1,0.3-0.2,0.4-0.2c0.2,0,0.3,0.1,0.4,0.2
		c0.1,0.1,0.2,0.3,0.2,0.4c0,0.2-0.1,0.3-0.2,0.4c-0.1,0.1-0.3,0.2-0.4,0.2C48.4,72.7,48.3,72.7,48.2,72.5z M48.3,79.8V74
		c0-0.1,0-0.1,0.1-0.1h0.4c0.1,0,0.1,0,0.1,0.1v5.8c0,0.1,0,0.1-0.1,0.1h-0.4C48.3,80,48.3,79.9,48.3,79.8z"/>
	<path class="st1" d="M53.5,73.9h0.4c0.1,0,0.1,0,0.1,0.1v5.9c0,0.8-0.2,1.5-0.6,1.9c-0.4,0.4-1,0.6-1.8,0.6c-0.1,0-0.1,0-0.1-0.1
		v-0.3c0-0.1,0.1-0.1,0.2-0.1c0.6,0,1-0.2,1.3-0.5c0.3-0.3,0.4-0.8,0.4-1.5v-0.5c0,0,0,0,0,0s0,0,0,0c-0.1,0.2-0.3,0.4-0.5,0.5
		C52.6,80,52.4,80,52.1,80c-0.5,0-0.9-0.2-1.2-0.5c-0.3-0.3-0.4-0.8-0.4-1.3v-2.6c0-0.5,0.1-1,0.4-1.3c0.3-0.3,0.7-0.5,1.2-0.5
		c0.3,0,0.5,0.1,0.7,0.2c0.2,0.1,0.4,0.3,0.5,0.5c0,0,0,0,0,0c0,0,0,0,0,0V74C53.4,74,53.4,73.9,53.5,73.9z M53.1,79.1
		c0.2-0.2,0.3-0.5,0.3-0.9v-2.5c0-0.4-0.1-0.7-0.3-0.9c-0.2-0.2-0.5-0.4-0.8-0.4c-0.3,0-0.6,0.1-0.8,0.4c-0.2,0.2-0.3,0.5-0.3,0.9
		v2.5c0,0.4,0.1,0.7,0.3,0.9c0.2,0.2,0.5,0.4,0.8,0.4C52.6,79.5,52.9,79.3,53.1,79.1z"/>
	<path class="st1" d="M58.6,74.3c0.3,0.3,0.4,0.8,0.4,1.4v4.1c0,0.1,0,0.1-0.1,0.1h-0.4c-0.1,0-0.1,0-0.1-0.1v-4.1
		c0-0.4-0.1-0.8-0.3-1s-0.5-0.4-0.8-0.4c-0.4,0-0.6,0.1-0.8,0.4c-0.2,0.3-0.3,0.6-0.3,1.1v4c0,0.1,0,0.1-0.1,0.1h-0.4
		c-0.1,0-0.1,0-0.1-0.1v-8.2c0-0.1,0-0.1,0.1-0.1H56c0.1,0,0.1,0,0.1,0.1v2.8c0,0,0,0,0,0s0,0,0,0c0.3-0.4,0.7-0.7,1.3-0.7
		C58,73.8,58.3,74,58.6,74.3z"/>
	<path class="st1" d="M62.4,74.4h-1c0,0,0,0,0,0v3.9c0,0.4,0.1,0.7,0.2,0.8s0.4,0.2,0.6,0.2h0.1c0.1,0,0.1,0,0.1,0.1v0.3
		c0,0.1,0,0.1-0.1,0.1h-0.2c-0.4,0-0.8-0.1-1-0.3s-0.3-0.6-0.3-1.2v-4c0,0,0,0,0,0h-0.5c-0.1,0-0.1,0-0.1-0.1V74
		c0-0.1,0-0.1,0.1-0.1h0.5c0,0,0,0,0,0v-1.3c0-0.1,0-0.1,0.1-0.1h0.4c0.1,0,0.1,0,0.1,0.1v1.3c0,0,0,0,0,0h1c0.1,0,0.1,0,0.1,0.1
		v0.3C62.5,74.4,62.4,74.4,62.4,74.4z"/>
</g>
<g class="st0">
	<path class="st1" d="M10.3,79.7v-8.2c0-0.1,0-0.1,0.1-0.1h0.4c0.1,0,0.1,0,0.1,0.1v7.7c0,0,0,0,0,0h2.8c0.1,0,0.1,0,0.1,0.1v0.3
		c0,0.1,0,0.1-0.1,0.1h-3.4C10.3,79.8,10.3,79.8,10.3,79.7z"/>
	<path class="st1" d="M18.1,77h-2.8c0,0,0,0,0,0v1c0,0.4,0.1,0.7,0.3,0.9c0.2,0.2,0.5,0.4,0.8,0.4c0.3,0,0.5-0.1,0.7-0.3
		c0.2-0.2,0.3-0.4,0.4-0.7c0-0.1,0.1-0.1,0.1-0.1l0.4,0c0,0,0.1,0,0.1,0c0,0,0,0,0,0.1v0c-0.1,0.4-0.3,0.8-0.6,1
		c-0.3,0.3-0.7,0.4-1.2,0.4c-0.5,0-1-0.2-1.3-0.5c-0.3-0.3-0.5-0.8-0.5-1.3v-2.7c0-0.5,0.2-1,0.5-1.3s0.8-0.5,1.3-0.5
		c0.5,0,1,0.2,1.3,0.5s0.5,0.8,0.5,1.3v1.4C18.2,77,18.2,77,18.1,77z M15.6,74.6c-0.2,0.2-0.3,0.5-0.3,0.9v0.9c0,0,0,0,0,0h2.2
		c0,0,0,0,0,0v-0.9c0-0.4-0.1-0.7-0.3-0.9c-0.2-0.2-0.5-0.4-0.8-0.4C16.1,74.2,15.8,74.3,15.6,74.6z"/>
	<path class="st1" d="M20.6,72.2c-0.1,0.2-0.2,0.6-0.2,1.1v0.4c0,0,0,0,0,0h1c0.1,0,0.1,0,0.1,0.1v0.3c0,0.1,0,0.1-0.1,0.1h-1
		c0,0,0,0,0,0v5.4c0,0.1,0,0.1-0.1,0.1h-0.4c-0.1,0-0.1,0-0.1-0.1v-5.4c0,0,0,0,0,0h-0.5c-0.1,0-0.1,0-0.1-0.1v-0.3
		c0-0.1,0-0.1,0.1-0.1h0.5c0,0,0,0,0,0v-0.4c0-0.7,0.1-1.2,0.3-1.5c0.2-0.3,0.6-0.5,1.2-0.5h0.2c0.1,0,0.1,0,0.1,0.1l0,0.3
		c0,0.1,0,0.1-0.1,0.1h-0.2C20.9,71.9,20.7,72,20.6,72.2z"/>
	<path class="st1" d="M24.6,74.3h-1c0,0,0,0,0,0v3.9c0,0.4,0.1,0.7,0.2,0.8s0.4,0.2,0.6,0.2h0.1c0.1,0,0.1,0,0.1,0.1v0.3
		c0,0.1,0,0.1-0.1,0.1h-0.2c-0.4,0-0.8-0.1-1-0.3S23,78.9,23,78.3v-4c0,0,0,0,0,0h-0.5c-0.1,0-0.1,0-0.1-0.1v-0.3
		c0-0.1,0-0.1,0.1-0.1h0.5c0,0,0,0,0,0v-1.3c0-0.1,0-0.1,0.1-0.1h0.4c0.1,0,0.1,0,0.1,0.1v1.3c0,0,0,0,0,0h1c0.1,0,0.1,0,0.1,0.1
		v0.3C24.7,74.2,24.7,74.3,24.6,74.3z"/>
</g>
</svg>
